<svg xmlns="http://www.w3.org/2000/svg" width="82.254" height="9.023" viewBox="0 0 82.254 9.023">
  <g id="Group_316" data-name="Group 316" transform="translate(-21.05 -2.827)">
    <g id="Group_249" data-name="Group 249" transform="translate(21.05 2.827)">
      <g id="Group_188" data-name="Group 188" transform="translate(0 0)">
        <g id="Group_187" data-name="Group 187" transform="translate(0 0)">
          <g id="Group_184" data-name="Group 184" transform="translate(40.795)">
            <path id="Path_100" data-name="Path 100" d="M149.1,241.317l2.383-1.376a.472.472,0,0,0,0-.818l-2.331-1.346a.472.472,0,0,0-.748.386V240.9a.471.471,0,0,0,.7.416Zm.4-4.123,3.058,1.765a.623.623,0,0,0,.623,0l.021-.012a.472.472,0,0,0,0-.818l-4.055-2.341a.473.473,0,0,0-.748.386v.046a.11.11,0,0,1-.165.095l-.442-.255a.11.11,0,0,1-.053-.116,1.157,1.157,0,0,1,1.761-.739l4.043,2.333a1.155,1.155,0,0,1,.008,1.995h0l-4.819,2.782a.665.665,0,0,0-.332.576h0a.473.473,0,0,0,.748.387l4.054-2.341a.472.472,0,0,0,0-.818l-.039-.023a.11.11,0,0,1,0-.19l.442-.255a.11.11,0,0,1,.127.012,1.156,1.156,0,0,1-.188,1.864l-4.043,2.334a1.156,1.156,0,0,1-1.783-.96h0v-5.611a.586.586,0,0,0-.293-.508h0a.473.473,0,0,0-.748.386V241.9a.473.473,0,0,0,.748.386h0a.11.11,0,0,1,.165.1v.508a.11.11,0,0,1-.075.1A1.151,1.151,0,0,1,146,241.9V237.17a1.154,1.154,0,0,1,1.723-1.005Z" transform="translate(-146 -235.021)" fill="#fff" fill-rule="evenodd"/>
            <path id="Path_101" data-name="Path 101" d="M396.38,522.1a.174.174,0,0,0,.276.143l1.494-.862a.174.174,0,0,0,0-.3l-1.494-.863a.174.174,0,0,0-.276.142Z" transform="translate(-393.347 -516.714)" fill="#18f040"/>
            <path id="Path_102" data-name="Path 102" d="M877.321,390l-.623.369a1.073,1.073,0,0,0-.333-.4.884.884,0,0,0-.956.076.56.56,0,0,0-.211.448q0,.372.554.6l.508.208a2.165,2.165,0,0,1,.907.611,1.381,1.381,0,0,1,.287.885,1.554,1.554,0,0,1-.468,1.16,1.607,1.607,0,0,1-1.17.462,1.565,1.565,0,0,1-1.094-.392,1.806,1.806,0,0,1-.531-1.1l.778-.171a1.321,1.321,0,0,0,.185.62.877.877,0,0,0,1.289.089.833.833,0,0,0,.237-.61.86.86,0,0,0-.041-.272.691.691,0,0,0-.129-.228,1.03,1.03,0,0,0-.226-.194,2.19,2.19,0,0,0-.33-.174l-.491-.2a1.413,1.413,0,0,1-1.044-1.292,1.226,1.226,0,0,1,.438-.959,1.583,1.583,0,0,1,1.091-.389A1.523,1.523,0,0,1,877.321,390Z" transform="translate(-864.511 -387.261)" fill="#fff"/>
            <path id="Path_103" data-name="Path 103" d="M1208.35,357.84h.742v2.624a1.277,1.277,0,0,1,.873-.356,1.128,1.128,0,0,1,.87.353,1.435,1.435,0,0,1,.277.979v1.968h-.742v-1.9a.9.9,0,0,0-.137-.559.528.528,0,0,0-.44-.173.6.6,0,0,0-.547.241,1.648,1.648,0,0,0-.155.837v1.552h-.742Z" transform="translate(-1194.623 -356.341)" fill="#fff"/>
            <path id="Path_104" data-name="Path 104" d="M1504.69,403.213a.485.485,0,0,1,.481-.478.468.468,0,0,1,.343.142.457.457,0,0,1,.142.339.467.467,0,0,1-.142.343.456.456,0,0,1-.339.142.484.484,0,0,1-.484-.488Zm.854,1.335v3.21h-.741v-3.21Z" transform="translate(-1487.374 -400.692)" fill="#fff"/>
            <path id="Path_105" data-name="Path 105" d="M1653.462,550.106h-.741v-4.957h.741v.349a1.374,1.374,0,0,1,1-.438,1.388,1.388,0,0,1,1.091.488,1.762,1.762,0,0,1,.435,1.223,1.733,1.733,0,0,1-.432,1.2,1.407,1.407,0,0,1-2.09.026Zm1.764-3.332a1.107,1.107,0,0,0-.251-.751.81.81,0,0,0-.639-.293.848.848,0,0,0-.663.283,1.074,1.074,0,0,0-.254.745,1.1,1.1,0,0,0,.254.745.834.834,0,0,0,.66.287.8.8,0,0,0,.636-.29A1.057,1.057,0,0,0,1655.225,546.774Z" transform="translate(-1633.611 -541.293)" fill="#fff"/>
            <path id="Path_106" data-name="Path 106" d="M1986.88,545.149h.741v.287a1.432,1.432,0,0,1,.362-.293.835.835,0,0,1,.382-.082,1.2,1.2,0,0,1,.613.191l-.339.679a.706.706,0,0,0-.412-.152q-.606,0-.606.916v1.665h-.742Z" transform="translate(-1963.724 -541.293)" fill="#fff"/>
            <path id="Path_107" data-name="Path 107" d="M2177.9,546.711a1.6,1.6,0,0,1,.5-1.183,1.756,1.756,0,0,1,2.433,0,1.719,1.719,0,0,1,0,2.416,1.7,1.7,0,0,1-1.23.484,1.631,1.631,0,0,1-1.209-.494A1.661,1.661,0,0,1,2177.9,546.711Zm.758.013a1.083,1.083,0,0,0,.257.761,1,1,0,0,0,1.391,0,1.2,1.2,0,0,0,0-1.5.987.987,0,0,0-1.384,0,1.031,1.031,0,0,0-.263.732Z" transform="translate(-2152.43 -541.273)" fill="#fff"/>
            <path id="Path_108" data-name="Path 108" d="M2515.49,545.287v.986a1.817,1.817,0,0,0-.455-.425.883.883,0,0,0-.465-.119.917.917,0,0,0-.7.293,1.028,1.028,0,0,0-.276.735,1.056,1.056,0,0,0,.266.742.9.9,0,0,0,.689.29.943.943,0,0,0,.471-.115,1.869,1.869,0,0,0,.465-.435v.979a1.949,1.949,0,0,1-.9.234,1.728,1.728,0,0,1-1.246-.481,1.607,1.607,0,0,1-.5-1.2,1.628,1.628,0,0,1,.508-1.213,1.716,1.716,0,0,1,1.246-.494A1.866,1.866,0,0,1,2515.49,545.287Z" transform="translate(-2483.313 -541.292)" fill="#fff"/>
            <path id="Path_109" data-name="Path 109" d="M2806.182,357.84v3.395l1.044-1.038h1l-1.394,1.348,1.5,1.862h-.962l-1.062-1.355-.119.119v1.236h-.741V357.84Z" transform="translate(-2772.369 -356.341)" fill="#fff"/>
            <path id="Path_110" data-name="Path 110" d="M3064.545,546.929h-2.3a.975.975,0,0,0,.257.63.784.784,0,0,0,.583.23.758.758,0,0,0,.458-.132,1.875,1.875,0,0,0,.406-.488l.626.349a2.5,2.5,0,0,1-.306.424,1.647,1.647,0,0,1-.347.291,1.38,1.38,0,0,1-.4.166,1.937,1.937,0,0,1-.465.053,1.511,1.511,0,0,1-1.154-.461,1.734,1.734,0,0,1-.435-1.233,1.78,1.78,0,0,1,.422-1.233,1.608,1.608,0,0,1,2.248-.013,1.776,1.776,0,0,1,.408,1.243Zm-.761-.607a.711.711,0,0,0-.749-.594.767.767,0,0,0-.253.041.718.718,0,0,0-.216.119.738.738,0,0,0-.166.186.849.849,0,0,0-.106.247Z" transform="translate(-3025.297 -541.293)" fill="#fff"/>
            <path id="Path_111" data-name="Path 111" d="M3364.058,457.129v2.518h-.742v-2.518H3363v-.692h.316V455.26h.741v1.177h.577v.692Z" transform="translate(-3323.176 -452.581)" fill="#fff"/>
          </g>
          <path id="Path_135" data-name="Path 135" d="M.479.3h.653V-1.565H2.344a1.614,1.614,0,0,0,1.68-1.687v-.007a1.6,1.6,0,0,0-1.68-1.673H.479Zm1.7-4.655a1.044,1.044,0,0,1,1.179,1.1v.007a1.044,1.044,0,0,1-1.179,1.1H1.132V-4.352ZM6.2.376A1.746,1.746,0,0,0,7.949-1.583V-1.59A1.743,1.743,0,0,0,6.2-3.542,1.742,1.742,0,0,0,4.455-1.59v.007A1.747,1.747,0,0,0,6.2.376Zm0-.559C5.54-.183,5.1-.694,5.1-1.583V-1.59c0-.882.443-1.393,1.1-1.393s1.1.508,1.1,1.393v.007C7.3-.7,6.872-.183,6.208-.183ZM9.48.3h.642l.849-2.921h.015L11.839.3h.642L13.533-3.47h-.624L12.154-.4H12.14l-.856-3.07h-.61L9.821-.4H9.807L9.052-3.47H8.424Zm6.27.073A1.511,1.511,0,0,0,17.314-.741l.007-.036H16.7l-.011.033a.915.915,0,0,1-.925.562,1.1,1.1,0,0,1-1.114-1.23h2.718v-.232a1.675,1.675,0,0,0-1.658-1.9,1.747,1.747,0,0,0-1.7,1.97v0A1.716,1.716,0,0,0,15.75.376Zm-.044-3.36c.552,0,.958.345,1.02,1.078H14.661A1.052,1.052,0,0,1,15.706-2.984ZM18.152.3h.631V-2.026a.8.8,0,0,1,.809-.914,1.271,1.271,0,0,1,.337.036v-.613a1.627,1.627,0,0,0-.254-.025.908.908,0,0,0-.878.711h-.015V-3.47h-.631Zm3.81.073A1.511,1.511,0,0,0,23.525-.741l.007-.036h-.62L22.9-.745a.915.915,0,0,1-.925.562,1.1,1.1,0,0,1-1.114-1.23H23.58v-.232a1.675,1.675,0,0,0-1.658-1.9,1.747,1.747,0,0,0-1.7,1.97v0A1.716,1.716,0,0,0,21.962.376Zm-.044-3.36c.552,0,.958.345,1.02,1.078H20.873A1.052,1.052,0,0,1,21.918-2.984ZM25.782.376a1.312,1.312,0,0,0,1.2-.711h.015V.3h.631V-4.932h-.631v2.094h-.015a1.337,1.337,0,0,0-1.208-.7c-.947,0-1.593.766-1.593,1.956v0C24.178-.393,24.817.376,25.782.376Zm.123-.559c-.668,0-1.081-.533-1.081-1.4v0c0-.86.414-1.4,1.081-1.4.635,0,1.092.555,1.092,1.4v0C27-.738,26.544-.183,25.905-.183ZM30.4.3h1.977c1.114,0,1.774-.548,1.774-1.469v-.007a1.261,1.261,0,0,0-1.212-1.288v-.015a1.164,1.164,0,0,0,.947-1.143v-.007a1.338,1.338,0,0,0-1.5-1.306H30.4Zm1.836-4.659c.631,0,.991.283.991.8v.007c0,.566-.421.874-1.194.874h-.98v-1.68Zm-.018,2.242c.835,0,1.263.308,1.263.914v.007c0,.6-.417.918-1.2.918H31.05v-1.84ZM35.3,1.574c.682,0,1.012-.312,1.281-1.034L38.056-3.47h-.664L36.348-.328h-.015L35.292-3.47h-.675l1.4,3.777-.076.214a.686.686,0,0,1-.773.53,1.056,1.056,0,0,1-.2-.022v.515A2.087,2.087,0,0,0,35.3,1.574Z" transform="translate(-0.479 6.597)" fill="#ebebeb"/>
        </g>
      </g>
    </g>
  </g>
</svg>
