<svg xmlns="http://www.w3.org/2000/svg" width="42" height="17" viewBox="0 0 42 17">
  <g id="Group_235" data-name="Group 235" transform="translate(0.362)">
    <g id="Group_232" data-name="Group 232" transform="translate(25)">
      <g id="Ellipse_1" data-name="Ellipse 1" transform="translate(-0.362)" fill="#fff" stroke="#222221" stroke-width="1">
        <circle cx="8.5" cy="8.5" r="8.5" stroke="none"/>
        <circle cx="8.5" cy="8.5" r="8" fill="none"/>
      </g>
      <g id="Paytm-Logo.wine" transform="translate(3.228 6.853)">
        <path id="Path_117" data-name="Path 117" d="M14.037.964A.7.7,0,0,0,13.382.5h-.006a.692.692,0,0,0-.5.213.692.692,0,0,0-.5-.213h-.006a.69.69,0,0,0-.453.168V.614a.1.1,0,0,0-.1-.095h-.465a.1.1,0,0,0-.1.1V3.145a.1.1,0,0,0,.1.1h.465a.1.1,0,0,0,.1-.089V1.348a.163.163,0,0,1,0-.018.169.169,0,0,1,.16-.156h.086a.181.181,0,0,1,.1.038.171.171,0,0,1,.063.136l0,1.8a.1.1,0,0,0,.1.1h.465a.1.1,0,0,0,.1-.1V1.345a.171.171,0,0,1,.076-.145.189.189,0,0,1,.085-.029h.086a.17.17,0,0,1,.161.174l0,1.8a.1.1,0,0,0,.1.1h.465a.1.1,0,0,0,.1-.1V1.209a.647.647,0,0,0-.035-.246M10.892.526h-.266V.094A.094.094,0,0,0,10.532,0l-.018,0c-.295.081-.236.489-.773.524H9.689l-.023,0h0a.1.1,0,0,0-.08.1v.465a.1.1,0,0,0,.1.1h.28v1.97a.1.1,0,0,0,.1.1h.459a.1.1,0,0,0,.1-.1V1.2h.26a.1.1,0,0,0,.1-.1V.628a.1.1,0,0,0-.1-.1" transform="translate(-3.648)" fill="#00baf2"/>
        <path id="Path_118" data-name="Path 118" d="M5.572.848H5.107a.1.1,0,0,0-.1.1v.961a.109.109,0,0,1-.109.107H4.7a.109.109,0,0,1-.109-.109l0-.959a.1.1,0,0,0-.1-.1H4.024a.1.1,0,0,0-.1.1V2a.659.659,0,0,0,.685.685s.3,0,.309,0a.108.108,0,0,1,0,.215l-.008,0-.679,0a.1.1,0,0,0-.1.1v.464a.1.1,0,0,0,.1.1h.76a.659.659,0,0,0,.685-.685V.951a.1.1,0,0,0-.1-.1m-4.5.851v.287A.109.109,0,0,1,.967,2.1H.672V1.521H.967a.109.109,0,0,1,.109.109ZM1.116.848H.1a.1.1,0,0,0-.1.1v.458s0,0,0,.006v2.06a.1.1,0,0,0,.094.1H.567a.1.1,0,0,0,.1-.1l0-.706h.444a.6.6,0,0,0,.631-.632V1.481A.6.6,0,0,0,1.116.848ZM3,2.79v.073A.107.107,0,0,1,3,2.88a.108.108,0,0,1-.108.085H2.7a.106.106,0,0,1-.109-.1V2.775s0,0,0,0V2.466h0a.106.106,0,0,1,.109-.1h.193a.106.106,0,0,1,.109.1ZM2.929.851H2.284a.1.1,0,0,0-.1.1v.181s0,0,0,0,0,0,0,0v.248a.106.106,0,0,0,.109.1H2.9a.107.107,0,0,1,.092.1v.06a.1.1,0,0,1-.09.1H2.6a.645.645,0,0,0-.692.646v.54a.609.609,0,0,0,.649.642H3.4a.265.265,0,0,0,.274-.255V1.548c0-.427-.22-.7-.747-.7Z" transform="translate(0 -0.323)" fill="#1f336b"/>
      </g>
    </g>
    <g id="Group_234" data-name="Group 234" transform="translate(12)">
      <g id="Ellipse_2" data-name="Ellipse 2" transform="translate(-0.362)" fill="#fff" stroke="#222221" stroke-width="1">
        <circle cx="8.5" cy="8.5" r="8.5" stroke="none"/>
        <circle cx="8.5" cy="8.5" r="8" fill="none"/>
      </g>
      <g id="Group_189" data-name="Group 189" transform="translate(3.948 4.282)">
        <circle id="ellipse30" cx="4.481" cy="4.481" r="4.481" transform="translate(0 8.963) rotate(-90)" fill="#5f259f"/>
        <path id="path36" d="M13.281,7.026a.331.331,0,0,0-.325-.325h-.6L10.978,5.123a.507.507,0,0,0-.526-.15l-.476.15a.111.111,0,0,0-.05.175l1.5,1.427H9.15a.118.118,0,0,0-.125.125V7.1a.331.331,0,0,0,.325.325H9.7v1.2c0,.9.476,1.427,1.277,1.427a1.732,1.732,0,0,0,.7-.125v.8a.4.4,0,0,0,.4.4h.351a.162.162,0,0,0,.15-.15V7.4h.576a.118.118,0,0,0,.125-.125Zm-1.6,2.153a1.193,1.193,0,0,1-.5.1c-.4,0-.6-.2-.6-.651v-1.2h1.1Z" transform="translate(-6.765 -3.714)" fill="#fff"/>
      </g>
    </g>
    <g id="Group_233" data-name="Group 233">
      <g id="Ellipse_3" data-name="Ellipse 3" transform="translate(-0.362)" fill="#fff" stroke="#222221" stroke-width="1">
        <circle cx="8.5" cy="8.5" r="8.5" stroke="none"/>
        <circle cx="8.5" cy="8.5" r="8" fill="none"/>
      </g>
      <g id="Google_Pay-Logo.wine" transform="translate(4.307 4.673)">
        <path id="Path_113" data-name="Path 113" d="M75.925,59.837a4.873,4.873,0,0,0-.07-.832H72V60.58h2.21a1.894,1.894,0,0,1-.817,1.243v1.023h1.319A4,4,0,0,0,75.925,59.837Z" transform="translate(-67.906 -55.653)" fill="#4285f4"/>
        <path id="Path_114" data-name="Path 114" d="M11.322,89.093a3.915,3.915,0,0,0,2.711-.987l-1.319-1.023a2.481,2.481,0,0,1-3.689-1.3H7.667v1.054A4.091,4.091,0,0,0,11.322,89.093Z" transform="translate(-7.231 -80.911)" fill="#34a853"/>
        <path id="Path_115" data-name="Path 115" d="M1.794,42.295a2.451,2.451,0,0,1,0-1.566V39.675H.436a4.091,4.091,0,0,0,0,3.674Z" transform="translate(0 -37.421)" fill="#fbbc04"/>
        <path id="Path_116" data-name="Path 116" d="M11.323,1.62a2.221,2.221,0,0,1,1.569.614L14.06,1.066A3.93,3.93,0,0,0,11.323,0,4.091,4.091,0,0,0,7.668,2.254L9.027,3.308A2.447,2.447,0,0,1,11.323,1.62Z" transform="translate(-7.233 0)" fill="#ea4335"/>
      </g>
    </g>
  </g>
</svg>
