<?xml version="1.0" encoding="utf-8"?>
<!-- Generator: Adobe Illustrator 27.5.0, SVG Export Plug-In . SVG Version: 6.00 Build 0)  -->
<svg version="1.1" xmlns="http://www.w3.org/2000/svg" xmlns:xlink="http://www.w3.org/1999/xlink" x="0px" y="0px"
	 viewBox="0 0 1100 800" style="enable-background:new 0 0 1100 800;" xml:space="preserve">
<g id="background">
	<rect style="fill:#E6E7E8;" width="1100" height="800"/>
</g>
<g id="shadow">
	<g>
		<path style="fill:#FFFFFF;" d="M521.683,690.811c-27.634,0.068-55.267,0.619-82.852,3.161
			c-10.401,0.959-20.584,3.068-31.008,3.918c-20.823,1.699-41.272,4.869-62.169,6.331c-16.827,1.177-33.726,1.872-50.504,3.366
			c-15.731,1.401-33.146,1.077-48.756-1.236c-11.556-1.713-23.165-2.677-34.527-5.428c-12.71-3.078-26.518-5.278-39.761-5.199
			c-18.884,0.113-37.274,0.126-55.346,5.56c-6.344,1.908-14.11,5.043-18.927,9.047c-11.028,9.165-12.521,32.032-1.509,41.537
			c18.546,15.997,58.129,22.274,84.126,22.571c28.487,0.325,56.16-1.428,84.689-2.458c26.509-0.958,52.952-2.32,79.505-2.272
			c54.232,0.098,108.47,0,162.604-3.002c50.86-2.821,101.847-1.852,152.819-1.852c52.269,0,104.184,0.341,156.076,6.098
			c22.61,2.508,45.644,3.387,68.367,5.144c20.351,1.574,39.907-0.031,60.177-1.486c17.02-1.221,33.929-4.845,49.392-10.969
			c12.24-4.848,34.06-19.908,37.814-31.48c10.523-32.44-148.301-31.66-172.687-31.587c-27.28,0.082-54.776,0.825-82.034-0.037
			c-11.466-0.362-22.764-2.22-33.954-4.255c-11.146-2.027-22.377-1.512-33.681-2.364c-47.138-3.553-94.382-3.034-141.67-3.034
			C552.476,690.885,537.08,690.773,521.683,690.811z"/>
	</g>
</g>
<g id="object">
	<g>
		<g>
			<path style="fill:#3B455A;" d="M171.773,350.898c-0.192,0.802-0.351,1.707,0.092,2.402c0.389,0.609,1.132,0.875,1.824,1.084
				c16.173,4.875,33.523,0.568,49.855-3.744c2.73-0.72,5.46-1.441,8.172-2.224c1.324-0.382,2.686-0.802,3.732-1.699
				c1.456-1.249,2.066-3.236,2.231-5.147c0.392-4.536-1.312-8.967-3.09-13.158c-4.552-10.728-9.793-21.163-15.681-31.219
				c-0.753-1.286-1.535-2.589-2.651-3.577c-2.199-1.945-5.425-2.379-8.303-1.802s-5.493,2.04-8.019,3.536
				c-8.877,5.26-14.782,10.662-16.602,20.833C181.167,328.286,174.628,338.994,171.773,350.898z"/>
			<path style="fill:#C67A6D;" d="M233.509,293.142c-6.908-24.565-37.738-17.529-44.926,3.478
				c-4.333,12.664,3.516,29.673,15.552,36.06c-0.4,3.278,0.386,11.857,0.56,11.857c4.313-0.004,8.627-0.008,12.94-0.012
				c0.112-3.202,0.039-6.408-0.184-9.604c1.507-0.27,3.029-0.7,4.56-1.355c7.051-3.016,11.721-10.193,13.257-17.707
				C236.802,308.346,235.585,300.524,233.509,293.142z"/>
			<g>
				<g id="XMLID_627_">
					<g id="XMLID_629_">
						<polygon style="fill:#3B455A;" points="204.412,744.209 203.624,752.291 187.036,759.301 179.922,750.682 188.61,743.136 
							205.199,736.126 						"/>
					</g>
					<g id="XMLID_628_">
						<polygon style="fill:#C67A6D;" points="218.266,580.394 205.493,741.66 189.508,743.803 176.279,606.354 165.339,562.747 
													"/>
					</g>
				</g>
				<g id="XMLID_624_">
					<g id="XMLID_626_">
						<polygon style="fill:#C67A6D;" points="251.627,537.185 263.839,727.841 251.494,732.41 221.114,587.41 204.401,545.425 
													"/>
					</g>
					<g id="XMLID_625_">
						<polygon style="fill:#3B455A;" points="252.791,738.753 270.115,743.979 276.443,734.362 267.004,727.673 251.236,730.6 
													"/>
					</g>
				</g>
				<g id="XMLID_623_">
					<path style="fill:#587BC9;" d="M234.658,338.409c-3.331-0.417-6.738-0.063-10.076,0.401
						c-10.076,1.403-20.008,3.805-29.598,7.16c-3.094,1.082-6.171,2.272-8.98,3.947c-13.664,8.151-12.556,20.917-15.062,35.133
						c-1.747,9.911-4.308,20.085-5.001,30.143c-1.804,26.22-10.041,52.741-21.408,76.749c-4.792,10.121-10.505,19.885-13.912,30.538
						c-5.647,17.654-5.632,38.452-4.035,56.724c16.073,4.357,31.127,12.518,47.657,14.633c13.599,1.74,27.333-0.727,40.992-1.92
						c16.153-1.41,32.419-1.034,48.588-2.26c16.168-1.226,32.512-4.157,46.824-11.679c-1.477,0.776-21.961-53.985-23.406-58.895
						c-2.42-8.222-3.715-16.717-5.075-25.173c-6.713-41.754-15.192-83.404-28.825-123.551c-3.502-10.313-4.202-29.154-17.261-31.723
						C235.608,338.543,235.133,338.468,234.658,338.409z"/>
				</g>
				<g id="XMLID_620_">
					<g id="XMLID_622_">
						<path style="fill:#3B455A;" d="M210.794,286.529c7.48,1.343,16.701,7.647,18.504,15.429c0.868,3.748-0.369,7.199,0.721,11.174
							c2.12,7.845-7.503,19.402,2.023,24.854c4.896,2.802,11.015,1.895,16.586,0.901c0.675-0.121,1.382-0.254,1.917-0.679
							c0.88-0.7,1.027-2.008,0.694-3.073c-0.334-1.065-1.049-1.965-1.674-2.893c-6.546-9.709-4.96-23.634-7.505-34.691
							c-2.54-11.035-8.551-22.026-19.634-26.555c-5.525,3.531-9.543,9.283-10.92,15.634L210.794,286.529z"/>
					</g>
					<g id="XMLID_621_">
						<path style="fill:#3B455A;" d="M183.544,347.641c3.532-2.166,6.996-4.434,9.043-8.479c3.308-6.539,1.913-16.698,2.308-23.792
							c0.413-7.477,1.104-15.624,6.301-21.082c3.395-3.565,7.57-4.543,12.286-5.017c3.229-0.324,3.458,0.871,6.044-1.071
							c1.982-1.489,3.433-5.557,3.718-7.889c0.482-3.933-1.445-7.875-4.294-10.668c-4.384-4.297-9.304-6.2-15.318-5.825
							c-21.11,1.315-35.86,14.969-40.043,35.774c-2.01,10,1.043,20.688-1.19,30.337c-1.379,5.957-4.811,10.138-5.804,16.441
							c-2.575,16.357-9.777,37.605-7.66,54.116c0.078,0.611,0.21,1.284,0.711,1.652c1.02,0.749,2.353-0.38,3.097-1.397
							c4.346-5.936,8.691-11.873,13.037-17.81c1.706-2.331,3.434-4.702,4.423-7.407c2.462-6.735,0.174-14.985,4.422-20.79
							C176.941,351.568,180.272,349.648,183.544,347.641z"/>
					</g>
				</g>
				<g id="XMLID_618_">
					<g id="XMLID_619_">
						<polygon style="fill:#587BC9;" points="161.826,354.716 118.236,435.288 166.93,471.044 178.231,460.001 150.655,434.774 
							192.558,402.324 187.615,349.479 						"/>
					</g>
				</g>
			</g>
			<g>
				<path style="fill:#999999;" d="M222.323,333.927c8.85,0,16.024-7.174,16.024-16.024h3.186c0,10.609-8.6,19.21-19.21,19.21
					V333.927z"/>
				<path style="fill:#5F6568;" d="M213.895,332.642h6.001c1.648,0,2.984,1.336,2.984,2.984v0.457c0,1.648-1.336,2.984-2.984,2.984
					h-6.001c-1.648,0-2.985-1.336-2.985-2.984v-0.457C210.91,333.978,212.247,332.642,213.895,332.642z"/>
				<g>
					<path style="fill:#999999;" d="M238.151,306.135v-13.178c0-14.242-11.546-25.788-25.788-25.788s-25.788,11.546-25.788,25.788
						v13.178h-5.665v-13.277c0-17.371,14.082-31.453,31.453-31.453s31.453,14.082,31.453,31.453v13.277H238.151z"/>
				</g>
				<g>
					<path style="fill:#999999;" d="M173.384,303.808c-0.974,1.467-0.974,2.466-0.974,3.708v2.408v2.408
						c0,1.242,0,2.241,0.974,3.708l1.589,1.862v-7.979v-7.978L173.384,303.808z"/>
					<path style="fill:#5F6568;" d="M183.533,321.756h-3.04c-3.049,0-5.52-2.471-5.52-5.52v-12.624c0-3.049,2.471-5.52,5.52-5.52
						h3.04c3.049,0,5.52,2.471,5.52,5.52v12.624C189.053,319.285,186.582,321.756,183.533,321.756z"/>
				</g>
				<g>
					<path style="fill:#999999;" d="M251.794,303.808c0.974,1.467,0.974,2.466,0.974,3.708v2.408v2.408c0,1.242,0,2.241-0.974,3.708
						l-1.589,1.862v-7.979v-7.978L251.794,303.808z"/>
					<path style="fill:#5F6568;" d="M241.649,321.756h3.04c3.049,0,5.52-2.471,5.52-5.52v-12.624c0-3.049-2.471-5.52-5.52-5.52
						h-3.04c-3.049,0-5.52,2.471-5.52,5.52v12.624C236.129,319.285,238.601,321.756,241.649,321.756z"/>
				</g>
			</g>
		</g>
		<g>
			<polygon style="fill:#E1CFB5;" points="552.958,389.945 537.034,383.712 534.139,386.829 534.139,391.983 526.044,391.983 
				526.761,401.296 534.139,404.114 549.673,402.014 			"/>
			<g id="XMLID_599_">
				<g id="XMLID_601_">
					<g id="XMLID_615_">
						<g id="XMLID_617_">
							<path style="fill:#3B455A;" d="M686.165,715.794c1.585-1.745,3.435-2.697,5.524-2.368c2.007,0.316,3.812,1.676,4.64,3.496
								c0.564,1.241,0.684,2.624,0.796,3.978c0.579,7.005,0.526,23.636-8.804,26.031c-3.921,1.005-7.165-1.781-8.212-5.301
								C678.531,736.323,680.866,721.628,686.165,715.794z"/>
						</g>
						<g id="XMLID_616_">
							<path style="fill:#C67A6D;" d="M682.846,610.119l0.488,42.726c-0.568,18.978,2.395,38.062,1.827,57.041
								c-0.131,4.364-1.268,8.967-0.169,13.293c1.075,4.231,4.513,4.979,8.043,2.837c4.728-2.871,3.966-9.574,4.754-14.465
								c2.163-13.439,4.701-26.816,6.96-40.239c1.108-6.581-1.175-15.803-0.679-22.463c0-0.004,6.903-35.807,6.903-35.807
								L682.846,610.119z"/>
						</g>
					</g>
					<g id="XMLID_614_">
						<polygon style="fill:#7DB5DB;" points="731.664,541.083 713.068,623.687 709.118,701.694 679.631,701.032 671.614,482.833 
							728.774,483.871 						"/>
					</g>
					<g id="XMLID_609_">
						<g id="XMLID_611_">
							<g id="XMLID_613_">
								<path style="fill:#3B455A;" d="M643.99,714.241c1.654-1.653,3.538-2.496,5.607-2.044c1.987,0.434,3.728,1.902,4.475,3.772
									c0.509,1.275,0.569,2.667,0.623,4.028c0.277,7.045-0.486,23.686-9.888,25.532c-3.951,0.775-7.065-2.205-7.958-5.79
									C635.503,734.336,638.459,719.767,643.99,714.241z"/>
							</g>
							<g id="XMLID_612_">
								<path style="fill:#C67A6D;" d="M659.532,616.117l-2.502,42.657c-0.204,11.855-1.784,23.617-3.011,35.392
									c-1.14,10.937,0.634,22.329-5.082,32.276c-1.792,3.119-5.416,5.196-7.947,1.406c-1.951-2.921-0.792-7.793-1.167-11.106
									c-1.527-13.525-3.432-27.005-5.056-40.519c-0.796-6.625,1.919-15.731,1.737-22.407l-5.207-36.089L659.532,616.117z"/>
							</g>
						</g>
						<g id="XMLID_610_">
							<polygon style="fill:#7DB5DB;" points="622.218,536.032 619.818,616.217 632.401,697.304 662.395,698.201 661.071,610.445 
								676.943,537.67 682.271,490.032 634.679,484.419 							"/>
						</g>
					</g>
					<g id="XMLID_608_">
						<polygon style="fill:#FFFFFF;" points="659.867,320.316 711.14,319.092 740.867,374.38 730.301,426.165 728.42,488.137 
							655.281,489.135 631.216,485.228 637.605,419.013 633.942,330.56 						"/>
					</g>
					<g id="XMLID_607_">
						<polygon style="fill:#FFFFFF;" points="658.016,353.817 631.309,407.208 602.513,412.93 544.855,404.114 551.929,386.078 
							604.8,386.078 634.656,330.56 						"/>
					</g>
					<g id="XMLID_602_">
						<g id="XMLID_606_">
							<path style="fill:#C67A6D;" d="M663.077,277.358c7.73-22.472,37.397-14.051,43.513,5.959
								c3.99,13.053-6.091,29.991-19.615,33.74c-0.059,0.514-0.104,0.994-0.106,1.401c-0.01,2.095-0.267,4.161-0.578,6.254
								c-0.116,0.78-11.952-1.494-13.272-1.754c-0.462-0.091-0.977-0.216-1.226-0.604c-0.477-0.743,0.299-2.932,0.386-3.757
								c0.102-0.975,0.205-1.95,0.307-2.925c-6.671-3.257-10.881-10.192-12.056-17.252
								C659.248,291.325,660.754,284.111,663.077,277.358z"/>
						</g>
						<g id="XMLID_603_">
							<g id="XMLID_605_">
								<path style="fill:#3B455A;" d="M682.432,257.051c1.591,1.615,2.216,3.868,2.675,6.031c0.274,1.292,0.51,2.628,0.233,3.907
									c-1.102,5.102-6.162,4.835-10.075,6.479c-4.826,2.028-8.987,5.761-11.689,10.061c-4.231,6.733-2.328,15.396-0.612,22.822
									c0.605,2.617,1.822,6.508-0.208,8.842c-2.062,2.372-6.829,2.006-9.3,0.785c-2.257-1.115-4.111-3.177-6.589-3.592
									c-2.623-0.439-6.168,0.714-7.389-1.693c-0.34-0.669-0.371-1.488-0.8-2.101c-1.449-2.072-5.054,0.355-7.097-1.106
									c-1.257-0.899-1.248-2.814-0.823-4.329c0.425-1.516,1.14-3.051,0.844-4.593c-0.254-1.325-1.21-2.372-1.801-3.577
									c-1.167-2.381-0.764-5.482,0.974-7.492c3.23-3.738,9.481-3.029,12.942-6.544c1.803-1.832,2.502-4.474,3.174-6.974
									c0.672-2.5,1.479-5.137,3.406-6.831c2.381-2.093,5.819-1.737,8.167-4.22c1.38-1.459,2.301-3.357,3.849-4.626
									c2.042-1.673,6.033-2.959,8.573-3.813C674.917,253.133,679.422,253.994,682.432,257.051z"/>
							</g>
							<g id="XMLID_604_">
								<path style="fill:#3B455A;" d="M701.198,292.913c0.138,7.397-3.536,15.393-0.129,21.904
									c3.438,6.57,12.01,7.755,19.315,8.098c1.202,0.056,16.62,1.388,16.685,1.095c1.154-5.152,2.348-10.406,5.041-14.93
									c2.693-4.524,7.195-8.272,12.351-8.594c-1.488-0.258-2.238-2.079-2.066-3.615c0.172-1.536,0.967-2.921,1.427-4.395
									c1.129-3.625,0.03-7.855-2.703-10.403c-5.454-5.083-15.343-2.972-20.018-8.811c-2.899-3.62-2.554-8.871-4.073-13.291
									c-2.938-8.546-12.294-10.335-19.288-14.194c-7.383-4.074-14.334-6.307-22.855-4.887
									c-10.563,1.76-18.414,12.514-14.341,22.634c5.225,12.98,26.114,11.86,30.026,25.038
									C700.99,289.977,701.17,291.433,701.198,292.913z"/>
							</g>
						</g>
					</g>
				</g>
				<g id="XMLID_600_">
					<polygon style="fill:#7DB5DB;" points="695.972,320.023 680.066,342.504 672.588,341.892 660.125,319.092 					"/>
				</g>
			</g>
		</g>
		<g>
			<polygon style="fill:#EFBFA5;" points="339.42,286.951 329.519,268.871 339.253,250.225 349.399,255.599 348.176,270.923 
				353.526,276.14 351.452,289.282 			"/>
			<g>
				<g>
					<g>
						<polygon style="fill:#BCBEC0;" points="491.486,457.843 492.831,574.186 480.432,723.957 463.574,723.957 443.402,585.78 
							420.333,447.366 						"/>
						<polygon style="fill:#3B455A;" points="463.671,731.066 481.901,740.181 491.017,731.066 481.901,721.951 463.671,721.951 
													"/>
					</g>
					<g>
						<polygon style="fill:#BCBEC0;" points="375.903,457.843 375.572,525.152 386.942,723.957 403.8,723.957 432.001,592.031 
							447.057,447.366 						"/>
						<polygon style="fill:#3B455A;" points="403.703,731.066 385.473,740.181 376.358,731.066 385.473,721.951 403.703,721.951 
													"/>
					</g>
				</g>
				<path style="fill:#3B455A;" d="M358.371,498.371c-0.361,10.68-0.13,24.964,4.367,25.498c0.842,0.1,1.654-0.273,2.395-0.633
					c7.819-3.798,13.392-9.168,21.1-12.838c8.077-3.846,17.258-5.858,26.23-7.248c13.382-2.137,26.985-3.421,40.453-3.541
					c11.575-0.102,23.613,5.178,34.555,8.082c4.212,1.118,7.639,4.187,11.138,6.595c5.168,3.556,7.434,4.964,6.729-2.301
					c-1.15-11.855-2.344-23.707-3.803-35.529c-2.909-23.579-6.869-47.102-13.569-69.927c-2.56-8.72-5.512-17.319-8.464-25.914
					c-3.594-10.467-7.189-20.934-10.783-31.4c-4.467-13.009-12.006-22.173-25.208-26.723c-11.409-3.932-25.58-5.008-36.677,0.496
					c-12.335,6.119-18.202,26.966-24.195,38.107c-5.251,9.763-11.871,36.39-13.837,46.915c-2.366,12.667-4.551,25.276-6.272,37.85
					c-1.906,13.927-3.249,27.814-3.638,41.618C358.851,489.005,358.544,493.272,358.371,498.371z"/>
				<path style="fill:#FFFFFF;" d="M419.306,324.828l22.782,0.217c0,0,24.446,85.432,25.344,100.156
					c0.882,14.455,7.061,73.065,7.061,73.065s-25.23,0.595-54.301,4.136c-28.419,6.082-30.807,2.486-30.807,2.486
					s15.338-61.601,15.846-79.3c0.521-18.103,2.838-77.891,2.838-77.891L419.306,324.828z"/>
				<g>
					<path style="fill:#EFBFA5;" d="M425.042,324.605c0.267,0.232,0.576,0.415,0.932,0.532c0.708,0.233,1.476,0.148,2.216,0.06
						c3.014-0.357,6.027-0.713,9.041-1.07c-0.994-9.229,4.401-11.316,9.658-17.251c5.328-6.018,3.688-14.13,3.389-21.494
						c-0.086-2.051-0.185-4.163-1.053-6.024c-1.522-3.265-5.065-5.067-8.504-6.136c-8.777-2.728-18.816-2.056-26.545,2.919
						c-2.057,1.324-3.977,2.988-5.092,5.166c-1.718,3.358-1.281,7.365-0.802,11.106c0.736,5.75,2.438,11.398,5.69,16.245
						c3.03,4.516,8.805,6.678,9.469,12.097C423.612,322.155,424.035,323.73,425.042,324.605z"/>
					<g>
						<path style="fill:#3B455A;" d="M408.535,285.729c0.512,2.319,1.594,4.666,1.031,6.972c-3.684-1.25-6.091-5.018-7.395-8.848
							c-0.591-1.736-1.021-3.574-0.872-5.411c0.149-1.837,0.947-3.682,2.396-4.72c2.024-1.448,5.654-0.879,6.233,1.746
							C410.511,278.115,407.764,282.24,408.535,285.729z"/>
						<path style="fill:#3B455A;" d="M388.979,265.359c0.087-2.779,1.146-5.262,3.629-6.939c2.141-1.446,4.609-2.645,5.909-4.943
							c1.009-1.784,1.158-3.992,2.158-5.781c1.811-3.24,5.742-4.193,9.162-5.292c8.555-2.747,13.161-5.919,22.222-2.402
							c6.442,2.501,14.766,2.836,20.745,6.484c2.497,1.523,4.621,3.97,6.365,6.696c6.04,9.444,7.49,22.723,3.556,32.574
							c-0.881,2.205-2,4.232-3.196,6.174c-2.392,3.882-4.954,8.658-9.189,10.559c-0.266-1.829-1.629-2.839-2.055-4.636
							c-0.307-1.294-0.204-2.65-0.137-3.981c0.26-5.179,1.849-13.368-3.324-15.937c-6.54-3.247-18.809-0.318-25.108,2.431
							c-5.573,2.433-14.98,5.597-20.923,2.992C393.278,280.937,388.793,271.295,388.979,265.359z"/>
					</g>
				</g>
			</g>
			<polygon style="fill:#3B455A;" points="406.836,322.988 366.624,356.765 357.242,287.719 335.929,283.591 332.198,377.428 
				355.003,398.846 396.484,378.361 			"/>
		</g>
		<g>
			<g>
				<g id="XMLID_597_">
					<circle id="XMLID_598_" style="fill:#305399;" cx="569.651" cy="490.872" r="143.876"/>
				</g>
				<g>
					<path style="fill:#FFFFFF;" d="M603.421,394.887c-4.308-3.809-10.271-5.715-17.89-5.715c-6.298,0-12.013,1.326-17.146,3.976
						c-5.136,2.65-9.154,6.172-12.049,10.558c-2.901,4.392-4.35,9.238-4.35,14.538c0,5.963,2.151,10.851,6.462,14.66
						c4.305,3.812,10.349,5.715,18.138,5.715c6.295,0,11.966-1.282,17.021-3.851c5.052-2.566,9.029-6.089,11.927-10.561
						c2.898-4.472,4.35-9.276,4.35-14.412C609.883,403.668,607.729,398.699,603.421,394.887z"/>
					<path style="fill:#FFFFFF;" d="M599.845,565.565c0,0-22.905,9.133-20.829-2.639l15.689-88.905
						c1.955-11.079-6.568-21.238-17.819-21.238h-24.9h-2.483h-16.239l-1.308,5.54c0,0,16.413,0.886,13.911,15.066
						c-5.697,32.281-16.086,91.155-16.096,91.21c-1.395,7.904,1.424,16.11,7.367,21.503c8.888,8.066,21.092,7.537,31.859,4.103
						c3.593-1.146,34.872-15.142,34.824-15.256L599.845,565.565z"/>
				</g>
				<path style="opacity:0.1;fill:#272525;" d="M652.756,373.461c16.647,23.476,26.465,52.135,26.465,83.104
					c0,79.461-64.415,143.876-143.876,143.876c-30.969,0-59.628-9.818-83.104-26.465c26.065,36.757,68.92,60.771,117.411,60.771
					c79.461,0,143.876-64.416,143.876-143.876C713.527,442.381,689.513,399.527,652.756,373.461z"/>
			</g>
			<path style="opacity:0.2;fill:#FFFFFF;" d="M601.885,368.006c0.646,0,1.291,0.005,1.936,0.012
				c-12.483-4.508-25.949-6.968-39.992-6.968c-39.597,0-74.62,19.542-95.91,49.487c-0.758,0.232-1.314,0.975-1.314,1.859v0.029
				c-12.803,18.775-20.287,41.452-20.287,65.873c0,0.544,0.008,1.087,0.016,1.63C467.986,414.904,529.445,368.006,601.885,368.006z"
				/>
		</g>
		<g>
			<path style="fill:#3B455A;" d="M74.329,239.988c-3.114,25.212-0.377,65.215,26.74,119.198
				c27.117,53.984,57.572,80.063,79.658,92.617c15.785,8.973,35.71,9.165,52.726,0.618l9.504-4.774
				c7.718-3.877,11.037-12.869,7.413-20.084l-22.707-45.204c-3.624-7.215-12.819-9.921-20.538-6.044l-13.279,6.67
				c-4.376,2.198-9.517,2.177-13.569-0.141c-20.649-11.817-36.858-44.93-36.858-44.93s-16.886-32.773-14.037-56.393
				c0.559-4.635,3.612-8.771,7.988-10.969l13.279-6.67c7.718-3.877,11.037-12.869,7.413-20.084l-22.707-45.204
				c-3.624-7.215-12.819-9.921-20.538-6.044l-9.504,4.774C88.297,205.87,76.555,221.968,74.329,239.988z"/>
			<path style="opacity:0.1;" d="M91.252,337.724c2.856,6.897,6.086,14.034,9.817,21.462c27.117,53.984,57.572,80.063,79.658,92.617
				c15.785,8.973,35.71,9.165,52.726,0.618l9.504-4.774c2.449-1.23,4.395-3.01,5.877-5.05
				C163.786,457.036,92.584,339.93,91.252,337.724z"/>
		</g>
		<g id="XMLID_595_">
			<g id="XMLID_596_">
				<path style="fill:#C67A6D;" d="M175.151,474.836c2.577,3.287,12.497,8.203,16.835,6.992c10.013-2.795-1.86-9.669-5.431-12.968
					c1.532-0.899,3.041-1.722,4.344-2.877c1.195-1.059-12.363-7.509-14.407-7.292c-4.905,0.52-5.573,3.584-8.379,7.229
					C170.521,468.828,172.817,471.856,175.151,474.836z"/>
			</g>
		</g>
		<g>
			<path style="fill:#999999;" d="M439.547,310.47c9.316,0,16.867-7.552,16.867-16.867h3.353c0,11.168-9.053,20.221-20.221,20.221
				V310.47z"/>
			<path style="fill:#5F6568;" d="M430.676,309.118h6.317c1.735,0,3.142,1.407,3.142,3.142v0.481c0,1.735-1.406,3.142-3.141,3.142
				h-6.317c-1.735,0-3.142-1.407-3.142-3.142v-0.481C427.534,310.524,428.94,309.118,430.676,309.118z"/>
			<g>
				<path style="fill:#999999;" d="M456.208,281.216v-13.872c0-14.992-12.153-27.145-27.145-27.145
					c-14.992,0-27.145,12.153-27.145,27.145v13.872h-5.963V267.24c0-18.285,14.823-33.108,33.108-33.108
					s33.108,14.823,33.108,33.108v13.976H456.208z"/>
			</g>
			<g>
				<path style="fill:#999999;" d="M388.033,278.766c-1.025,1.544-1.025,2.596-1.025,3.903v2.535c0,0,0,2.534,0,2.535
					c0,1.307,0,2.359,1.025,3.904l1.673,1.96v-8.398v-8.398L388.033,278.766z"/>
				<path style="fill:#5F6568;" d="M398.716,297.659h-3.2c-3.209,0-5.811-2.602-5.811-5.811V278.56c0-3.209,2.602-5.811,5.811-5.811
					h3.2c3.209,0,5.811,2.601,5.811,5.811v13.288C404.526,295.057,401.925,297.659,398.716,297.659z"/>
			</g>
			<g>
				<path style="fill:#999999;" d="M470.569,278.766c1.025,1.544,1.025,2.596,1.025,3.903v2.535c0,0,0,2.534,0,2.535
					c0,1.307,0,2.359-1.025,3.904l-1.673,1.96v-8.398v-8.398L470.569,278.766z"/>
				<path style="fill:#5F6568;" d="M459.891,297.659h3.2c3.209,0,5.811-2.602,5.811-5.811V278.56c0-3.209-2.601-5.811-5.811-5.811
					h-3.2c-3.209,0-5.811,2.601-5.811,5.811v13.288C454.08,295.057,456.682,297.659,459.891,297.659z"/>
			</g>
		</g>
		<g>
			<path style="fill:#999999;" d="M692.014,316.682c8.858,0,16.039-7.181,16.039-16.039h3.188c0,10.619-8.608,19.227-19.227,19.227
				V316.682z"/>
			<path style="fill:#5F6568;" d="M683.578,315.397h6.006c1.65,0,2.987,1.337,2.987,2.987v0.457c0,1.65-1.337,2.987-2.987,2.987
				h-6.006c-1.65,0-2.987-1.337-2.987-2.987v-0.457C680.591,316.734,681.928,315.397,683.578,315.397z"/>
			<g>
				<path style="fill:#999999;" d="M707.857,288.865v-13.191c0-14.255-11.556-25.811-25.812-25.811s-25.812,11.556-25.812,25.811
					v13.191h-5.67v-13.289c0-17.387,14.095-31.482,31.482-31.482s31.482,14.095,31.482,31.482v13.289H707.857z"/>
			</g>
			<g>
				<path style="fill:#999999;" d="M643.03,286.536c-0.975,1.468-0.975,2.469-0.975,3.712v2.41v2.41c0,1.243,0,2.243,0.975,3.712
					l1.591,1.864v-7.986v-7.986L643.03,286.536z"/>
				<path style="fill:#5F6568;" d="M653.188,304.501h-3.042c-3.052,0-5.525-2.474-5.525-5.525V286.34
					c0-3.051,2.474-5.525,5.525-5.525h3.042c3.051,0,5.525,2.474,5.525,5.525v12.636
					C658.713,302.027,656.24,304.501,653.188,304.501z"/>
			</g>
			<g>
				<path style="fill:#999999;" d="M721.512,286.536c0.975,1.468,0.975,2.469,0.975,3.712v2.41v2.41c0,1.243,0,2.243-0.975,3.712
					l-1.591,1.864v-7.986v-7.986L721.512,286.536z"/>
				<path style="fill:#5F6568;" d="M711.358,304.501h3.043c3.051,0,5.525-2.474,5.525-5.525V286.34c0-3.051-2.474-5.525-5.525-5.525
					h-3.042c-3.052,0-5.525,2.474-5.525,5.525v12.636C705.833,302.027,708.307,304.501,711.358,304.501z"/>
			</g>
		</g>
		<polygon style="fill:#EFBFA5;" points="502.172,226.922 497.41,207.678 481.034,200.764 477.93,211.834 486.716,222.899 
			487.936,232.704 		"/>
		<polygon style="fill:#3B455A;" points="447.057,324.341 498.286,303.737 482.23,222.992 500.707,220.794 531.67,305.058 
			525.292,330.588 467.324,369.644 		"/>
		<path style="fill:#7DB5DB;" d="M620.166,27.419l-277.688,1.198c-14.383,0.062-26.1,11.881-26.038,26.264l0.594,137.823
			c0.062,14.383,11.881,26.101,26.264,26.038l192.394-0.83l45.722,61.7l7.989-61.932l31.582-0.136
			c14.383-0.062,26.1-11.881,26.038-26.264L646.43,53.457C646.368,39.074,634.549,27.357,620.166,27.419z"/>
		<g>
			<g id="XMLID_594_">
				<polygon style="fill:#C67A6D;" points="713.961,448.794 718.84,455.94 708.947,468.825 697.946,467.926 692.534,459.436 
					699.445,454.475 698.481,452.465 699.866,449.462 				"/>
			</g>
			<g id="XMLID_593_">
				<polygon style="fill:#FFFFFF;" points="712.84,322.905 769.625,388.23 772.399,416.844 716.388,461.06 706.339,446.519 
					742.563,407.842 707.471,373.488 				"/>
			</g>
		</g>
		<g>
			<g>
				<path style="fill:#3B455A;" d="M879.431,746.234l14.48-13.375c4.201-2.126,8.646-3.611,12.246-3.565
					c2.615,0.033,4.785,0.872,6.094,2.857c1.257,1.906,1.512,4.416,0.656,6.449c-0.313,0.743-0.758,1.409-1.258,2.036l0.001,0
					c0,0-0.006,0.006-0.007,0.008c-0.431,0.54-0.903,1.052-1.373,1.556c-0.299,0.322-0.629,0.667-0.979,1.026
					c-2.997,3.248-8.018,8.537-10.01,9.733c-2.924,1.754-9.356,6.432-16.957,1.169c0.028-0.025,0.06-0.049,0.089-0.075
					C879.649,752.184,878.835,749.109,879.431,746.234z"/>
				<path style="fill:#EFBFA5;" d="M890.797,629.755l1.169,16.784l5.737,81.712l-5.737,9.506c0,0-1.169,7.601,7.602,7.017
					c2.609-0.174,11.85-11.923,11.85-11.923l-1.336-5.384l6.503-61.353l-0.06-17.82l3.111-19.786L890.797,629.755z"/>
			</g>
			<g>
				<path style="fill:#3B455A;" d="M982.588,725.485c2.696-0.848,5.206-0.718,7.219,0.878c1.933,1.533,3.041,4.023,2.847,6.399
					c-0.132,1.62-0.817,3.12-1.493,4.584c-3.497,7.579-13.304,24.715-24.556,21.574c-4.728-1.321-6.518-6.148-5.559-10.412
					C962.493,742.084,973.575,728.319,982.588,725.485z"/>
			</g>
			<path style="fill:#EFBFA5;" d="M925.872,619.954l1.959,24.168l47.441,85.418c0,0-6.819,11.914-2.494,12.949
				c4.325,1.035,17.008-2.574,17.035-16.026c-4.988-16.292-24.594-71.613-24.594-71.613l-9.18-14.275l0.135-26.828L925.872,619.954z
				"/>
			<path style="fill:#7DB5DB;" d="M979.472,539.054c0.374-7.125-1.904-25.713-4.245-32.374c-8.535-24.287-10.18-36.257-10.18-56.026
				c0-19.769-3.811-81.539-3.811-81.539l-17.889-19.198l-36.526,1.025l-20.283,6.689c0,0-4.294,78.858-5.513,104.275
				c-0.87,18.138-2.129,33.847-3.788,54.863c0,0-4.649,47.935,2.534,99.321c0,0,1.604,17.063,2.323,18.558
				c0.095,0.507,0.148,0.779,0.148,0.779s0.289,0,0.292,0.001l81.224-0.001l0-29.284c2.704-9.399,5.272-18.841,7.733-28.306
				C974.618,565.809,978.777,552.276,979.472,539.054z"/>
			<path style="fill:#587BC9;" d="M962.292,355.442l6.937,8.278c0,0-3.619,74.338-4.182,86.935
				c-0.563,12.597,15.671,62.937,15.671,62.937l-67.244,8.771c0,0-9.89-53.761-12.736-80.468
				c-2.846-26.707,37.838-91.814,37.838-91.814L962.292,355.442z"/>
			<path style="fill:#587BC9;" d="M894.879,354.174l-13.724,6.512c0,0,1.93,80.249-1.589,100.631
				c-2.145,12.424-10.496,52.658-10.496,52.658l21.715,7.431c0,0,13.369-50.327,16.025-77.034
				c2.656-26.707-0.237-93.123-0.237-93.123L894.879,354.174z"/>
			<g>
				<g>
					<path style="fill:#3B455A;" d="M897.542,324.777c-1.782,6.895,2.309,13.706,5.888,19.522c1.462,2.376,3.728,5.681,1.842,8.393
						c-2.112,3.036-7.359,2.428-9.667,0.158c-1.63-1.603-2.431-3.776-3.126-5.895c-3.115-9.496-7.466-22.797-6.615-32.78
						c0.682-8.004,10.498-22.218,20.609-17.132c1.836,0.923,3.013,2.658,4.019,4.363c0.601,1.018,1.182,2.085,1.302,3.247
						c0.477,4.634-3.992,5.827-6.929,8.318C901.244,316.042,898.679,320.374,897.542,324.777z"/>
					<path style="fill:#EFBFA5;" d="M914.415,349.545c-6.753-0.858-12.398-5.579-15.419-11.262
						c-3.021-5.683-3.742-12.222-3.623-18.598c0.394-21.22,28.532-22.398,39.472-7.149
						C944.378,325.826,934.05,352.04,914.415,349.545z"/>
					<path style="fill:#3B455A;" d="M933.622,322.553c0.232,2.57,1.539,5.294,1.9,7.934c0.664,4.859-0.425,11.165,1.354,15.605
						c4.934-0.676,10.934-3.762,14.59-7.148c3.734-3.458,3.062-8.6,3.896-13.694c0.772-4.712,1.756-9.447,1.487-14.213
						c-1.474-26.097-27.516-40.369-50.461-28.596c-8.681,4.454-12.477,15.773-6.092,23.211c6.867,8,20.821,4.531,29.046,10.467
						C931.167,317.436,932.57,319.802,933.622,322.553z"/>
				</g>
				<path style="fill:#EFBFA5;" d="M913.849,347.356c0.343,1.58,0.685,3.16,1.027,4.739c0.157,0.724,0.098,2.797,0.722,3.294
					c0.325,0.259,0.808,0.22,1.234,0.168c1.22-0.15,12.14-1.54,12.021-2.235c-0.319-1.862-0.676-3.686-1.257-5.465
					c-0.469-1.437-0.649-4.14-1.515-5.23c-1.855,1.268-3.772,2.053-5.957,2.672c-2.108,0.598-4.227,1.16-6.355,1.688
					C913.796,347.111,913.822,347.233,913.849,347.356z"/>
			</g>
			<polygon style="fill:#EFBFA5;" points="870.163,254.439 876.847,234.705 894.609,228.91 896.882,240.777 886.704,251.59 
				884.561,261.751 			"/>
			<polygon style="fill:#587BC9;" points="906.303,372.068 868.643,337.354 891.394,252.083 872.237,248.15 832.372,333.667 
				836.799,360.968 894.063,406.987 			"/>
			<g>
				<path style="fill:#999999;" d="M910.17,348.549c-9.054,0-16.394-7.34-16.394-16.394h-3.259c0,10.854,8.799,19.653,19.653,19.653
					V348.549z"/>
				<path style="fill:#5F6568;" d="M918.793,347.235h-6.14c-1.686,0-3.053,1.367-3.053,3.053v0.468c0,1.686,1.367,3.053,3.053,3.053
					h6.14c1.686,0,3.053-1.367,3.053-3.053v-0.468C921.846,348.602,920.479,347.235,918.793,347.235z"/>
				<g>
					<path style="fill:#999999;" d="M893.976,320.116v-13.483c0-14.571,11.812-26.383,26.383-26.383
						c14.571,0,26.383,11.812,26.383,26.383v13.483h5.796v-13.584c0-17.772-14.407-32.179-32.179-32.179
						c-17.772,0-32.18,14.407-32.18,32.179v13.584H893.976z"/>
				</g>
				<g>
					<path style="fill:#999999;" d="M960.239,317.735c0.997,1.501,0.997,2.523,0.997,3.794v2.464v2.464c0,1.271,0,2.293-0.997,3.794
						l-1.626,1.905v-8.163v-8.163L960.239,317.735z"/>
					<path style="fill:#5F6568;" d="M949.856,336.098h3.11c3.119,0,5.647-2.528,5.647-5.647v-12.916
						c0-3.119-2.529-5.647-5.647-5.647h-3.11c-3.119,0-5.648,2.529-5.648,5.647v12.916
						C944.208,333.569,946.737,336.098,949.856,336.098z"/>
				</g>
				<g>
					<path style="fill:#999999;" d="M880.018,317.735c-0.996,1.501-0.996,2.523-0.996,3.794v2.464v2.464
						c0,1.271,0,2.293,0.996,3.794l1.626,1.905v-8.163v-8.163L880.018,317.735z"/>
					<path style="fill:#5F6568;" d="M890.397,336.098h-3.11c-3.119,0-5.648-2.528-5.648-5.647v-12.916
						c0-3.119,2.529-5.647,5.648-5.647h3.11c3.119,0,5.647,2.529,5.647,5.647v12.916
						C896.045,333.569,893.516,336.098,890.397,336.098z"/>
				</g>
			</g>
			<g>
				<g>
					<g>
						<path style="fill:#305399;" d="M817.217,295.134c-8.273-1.993-16.091-0.788-23.233,3.58
							c-7.143,4.368-11.775,10.779-13.769,19.054c-1.996,8.283-0.791,16.1,3.58,23.233c4.369,7.142,10.779,11.774,19.053,13.768
							c3.281,0.79,6.49,1.077,9.616,0.863c4.749-0.326,9.305-1.809,13.618-4.443c7.142-4.37,11.774-10.78,13.768-19.053
							c1.991-8.266,0.787-16.082-3.581-23.236C831.893,301.757,825.483,297.125,817.217,295.134z"/>
					</g>
					<g style="opacity:0.1;">
						<g>
							<path d="M836.269,308.9c-4.376-7.142-10.786-11.774-19.052-13.766c-2.67-0.643-5.292-0.948-7.859-0.926
								c5.283,2.488,9.56,6.354,12.75,11.561c4.369,7.154,5.573,14.97,3.581,23.236c-1.994,8.274-6.626,14.684-13.768,19.054
								c-4.313,2.633-8.869,4.117-13.618,4.443c-0.584,0.04-1.172,0.057-1.762,0.061c1.965,0.925,4.065,1.666,6.307,2.207
								c3.281,0.79,6.49,1.077,9.616,0.863c4.749-0.326,9.305-1.809,13.618-4.443c7.142-4.37,11.774-10.78,13.768-19.053
								C841.842,323.87,840.638,316.054,836.269,308.9z"/>
						</g>
					</g>
					<g>
						<path style="fill:#305399;" d="M973.784,83.891c-14.152-21.207-36.485-35.612-66.379-42.815
							c-29.886-7.2-56.468-4.589-79.007,7.762c-19.593,10.737-33.336,27.616-40.847,50.168c-1.266,3.8-0.877,7.99,1.066,11.494
							c1.943,3.504,5.29,6.051,9.184,6.989l17.8,4.288c7.103,1.71,14.347-2.188,16.845-9.072
							c4.43-12.208,11.313-20.756,21.041-26.133c11.776-6.507,26.441-7.712,43.586-3.582c17.092,4.118,29.448,12.041,36.724,23.546
							c7.243,11.471,8.868,25.784,4.831,42.541c-5.565,23.099-15.93,37.066-30.808,41.513c-15.667,4.681-38.211,3.38-67.05-3.874
							l-7.703-1.856c-7.69-1.853-15.451,2.896-17.303,10.584L799.6,262.528c-0.897,3.724-0.291,7.575,1.709,10.843
							c1.999,3.269,5.151,5.563,8.875,6.46l18.055,4.35c1.455,0.351,2.912,0.465,4.332,0.367c6.082-0.418,11.47-4.718,12.971-10.951
							l10.467-43.444c0.129-0.538,0.674-0.882,1.208-0.769c33.861,7.206,61.507,5.962,82.17-3.697
							c21.976-10.273,36.945-31.358,44.489-62.67C991.392,131.83,987.997,105.208,973.784,83.891z"/>
					</g>
					<g style="opacity:0.1;">
						<g>
							<path d="M973.784,83.891c-14.152-21.207-36.485-35.612-66.379-42.815c-18.504-4.458-35.741-5.15-51.537-2.103
								c8.425,0.382,17.172,1.657,26.225,3.838c29.894,7.203,52.227,21.608,66.379,42.815
								c14.212,21.317,17.608,47.939,10.094,79.128c-7.545,31.312-22.513,52.397-44.489,62.67
								c-6.347,2.967-13.355,5.136-20.997,6.514c17.998,0.49,33.497-2.26,46.309-8.249c21.976-10.273,36.945-31.358,44.489-62.67
								C991.392,131.83,987.997,105.208,973.784,83.891z"/>
						</g>
					</g>
				</g>
			</g>
			<g>
				<g>
					<g>
						<path style="fill:#3B455A;" d="M928.871,598.797l-118.768-3.854c-0.964-0.031-1.72-0.838-1.689-1.802l6.556-202.017
							c0.031-0.964,0.838-1.72,1.802-1.689l118.768,3.854c0.964,0.031,1.72,0.838,1.689,1.802l-6.556,202.017
							C930.643,598.072,929.836,598.828,928.871,598.797z"/>
					</g>
					
						<rect x="821.019" y="402.012" transform="matrix(0.9995 0.0324 -0.0324 0.9995 16.2009 -28.0647)" style="fill:#F7F7F7;" width="104.178" height="166.597"/>
					<path style="fill:#F7F7F7;" d="M882.336,588.976l-25.159-0.816c-0.609-0.02-1.087-0.53-1.068-1.139l0.211-6.5
						c0.02-0.609,0.53-1.087,1.139-1.068l25.159,0.817c0.609,0.02,1.087,0.53,1.068,1.139l-0.211,6.5
						C883.456,588.518,882.946,588.996,882.336,588.976z"/>
				</g>
			</g>
			<g>
				<polygon style="fill:#EFBFA5;" points="954.752,484.22 946.275,503.254 928.055,507.387 926.886,495.36 938.018,485.532 
					941.089,475.612 				"/>
				<polygon style="fill:#587BC9;" points="946.4,367.795 971.751,422.904 941.089,475.612 953.66,487.267 996.802,433.124 
					1003.31,414.521 969.229,363.72 				"/>
			</g>
		</g>
		<g>
			<polygon style="fill:#C67A6D;" points="279.732,319.733 277.938,311.895 279.867,310.019 283.726,313.401 288.71,303.355 
				296.909,298.462 301.166,303.084 294.143,313.828 289.552,320.606 285.654,334.846 278.903,332.775 			"/>
			<path style="fill:#587BC9;" d="M269.523,361.674c2.642-12.876,4.662-25.88,6.052-38.951c5.453-0.44,11.005,0.417,16.071,2.481
				c1.361,23.08,0.296,46.303-3.173,69.162c-0.149,0.983-0.358,2.062-1.142,2.673c-0.657,0.511-1.552,0.558-2.384,0.558
				c-8.079-0.001-15.959-2.369-23.599-4.997c-11.654-4.008-23.082-8.672-34.212-13.963c1.236-7.039,1.503-14.248,0.791-21.359
				c-0.985-9.832,1.277-23.275,13.376-15.701C244.581,343.628,270.081,358.956,269.523,361.674z"/>
		</g>
	</g>
</g>
</svg>
